# xmcd CD database file
#
# Track frame offsets:
#	150
#	14201
#	28052
#	39497
#	52379
#	63252
#	76916
#	86302
#	99251
#	109295
#	121270
#	132253
#	143829
#	154539
#	164874
#	175184
#	188252
#	199416
#	211195
#	222180
#	233168
#	241767
#	256973
#	270713
#	280344
#	292336
#	304278
#
# Disc length: 4234 seconds
#
# Revision: 0
# Processed by: cddbd v1.5.2PL0 Copyright (c) Steve Scherf et al.
# Submitted via: CDex 1.51
#
DISCID=8f10881b
DTITLE=Nappy Brown - Down In The Alley CD 1
DYEAR=2016
DGENRE=Blues
TTITLE0=I Wonder
TTITLE1=That Man
TTITLE2=Two Faced Woman And A Lying Man
TTITLE3=Is It True, Is It True
TTITLE4=Don't Be Angry
TTITLE5=Is It Really You
TTITLE6=Pitter Patter
TTITLE7=There'll Come A Day
TTITLE8=Just A Little Love
TTITLE9=Well, Well, Well, Baby-La
TTITLE10=Dood'll I Love You
TTITLE11=Sittin' In The Dark
TTITLE12=Open Up That Door
TTITLE13=Pleasin' You
TTITLE14=Am I
TTITLE15=Love, Baby
TTITLE16=I'm Getting Lonesome
TTITLE17=Little By Little
TTITLE18=Pretty Girl
TTITLE19=I'm Gonna Get You
TTITLE20=Goody-Goody-Gum Drop
TTITLE21=Bye Bye Baby
TTITLE22=The Right Time
TTITLE23=Oh You Don't Know
TTITLE24=I'm In The Mood
TTITLE25=If You Need Some Lovin'
TTITLE26=Skidy Woe
EXTD=YEAR: 2016
EXTT0=
EXTT1=
EXTT2=
EXTT3=
EXTT4=
EXTT5=
EXTT6=
EXTT7=
EXTT8=
EXTT9=
EXTT10=
EXTT11=
EXTT12=
EXTT13=
EXTT14=
EXTT15=
EXTT16=
EXTT17=
EXTT18=
EXTT19=
EXTT20=
EXTT21=
EXTT22=
EXTT23=
EXTT24=
EXTT25=
EXTT26=
PLAYORDER=
